<svg id="visual" viewBox="0 0 900 600" width="900" height="600" xmlns="http://www.w3.org/2000/svg" xmlns:xlink="http://www.w3.org/1999/xlink" version="1.1"><rect x="0" y="0" width="900" height="600" fill="#121212"></rect><g transform="translate(446.9813294402249 277.61229173135007)"><path d="M140.8 -192.9C177.5 -167.3 198.6 -119.3 212.3 -70.5C226 -21.7 232.4 27.9 225.1 80.3C217.9 132.6 197.1 187.7 157.3 222.1C117.6 256.5 58.8 270.2 0.4 269.7C-58 269.2 -116 254.3 -152.3 218.8C-188.6 183.2 -203.2 127 -212.6 74.6C-221.9 22.2 -226 -26.3 -217.4 -76.1C-208.7 -125.9 -187.2 -177 -148.9 -202.1C-110.5 -227.1 -55.3 -226.1 -1.6 -223.9C52.1 -221.7 104.2 -218.5 140.8 -192.9" fill="#1a1a1a"></path></g></svg>